# xmcd
#
# Track frame offsets: 
#        150
#        13271
#        30018
#        51668
#        64002
#        77862
#        102925
#        127590
#        142331
#        156209
#        173434
#
# Disc length: 2495 seconds
#
# Revision: 1
# Processed by: cddbd v1.5.2PL0 Copyright (c) Steve Scherf et al.
# Submitted via: ExactAudioCopyFreeDBPlugin 1.0
#
DISCID=8909bd0b
DTITLE=Vitun Kova Ääni - Aikatauluis
DYEAR=2011
DGENRE=Hip-Hop
TTITLE0=Edelleen
TTITLE1=Kahvitauko
TTITLE2=Satteita
TTITLE3=Väliaikainen
TTITLE4=Uhusia
TTITLE5=Harson Läpi (feat. Yona)
TTITLE6=Musta Pörssi
TTITLE7=Riita Soinnussa
TTITLE8=Petoni Viidakossa
TTITLE9=Kumman Todellinen Uni
TTITLE10=Lähtö
EXTD=
EXTT0=
EXTT1=
EXTT2=
EXTT3=
EXTT4=
EXTT5=
EXTT6=
EXTT7=
EXTT8=
EXTT9=
EXTT10=
PLAYORDER=
